<?xml version="1.0" encoding="UTF-8"?>
<svg width="20px" height="24px" viewBox="0 0 20 24" version="1.1" xmlns="http://www.w3.org/2000/svg" xmlns:xlink="http://www.w3.org/1999/xlink">
    <!-- Generator: Sketch 43.2 (39069) - http://www.bohemiancoding.com/sketch -->
    <title>Alert Bell</title>
    <desc>Created with Sketch.</desc>
    <defs></defs>
    <g id="Page-1" stroke="none" stroke-width="1" fill="none" fill-rule="evenodd">
        <g id="List-View" transform="translate(-1358.000000, -18.000000)" fill-rule="nonzero" fill="#FFFFFF">
            <g id="Alert-Bell" transform="translate(1358.500000, 17.875000)">
                <g id="Group">
                    <path d="M18.3910256,15.7096354 C17.7333333,14.7200521 17.3192308,13.6067708 17.3192308,12.4192708 L17.3192308,10.0690104 C17.3192308,6.18489583 14.9564103,3.265625 11.3025641,2.49869792 L11.3025641,1.55859375 C11.3025641,0.766927083 10.6692308,0.123697917 9.88974359,0.123697917 L9.08589744,0.123697917 C8.30641026,0.123697917 7.67307692,0.766927083 7.67307692,1.55859375 L7.67307692,2.49869792 C4.04358974,3.29036458 1.65641026,6.20963542 1.65641026,10.0690104 L1.65641026,12.4192708 C1.65641026,13.6067708 1.24230769,14.7447917 0.584615385,15.7096354 C0.316666667,16.1054687 0.170512821,16.5755208 0.170512821,17.0703125 L0.170512821,17.2682292 C0.170512821,18.6041667 1.24230769,19.6927083 2.55769231,19.6927083 L16.4179487,19.6927083 C17.7333333,19.6927083 18.8051282,18.6041667 18.8051282,17.2682292 L18.8051282,17.0703125 C18.8051282,16.5755208 18.6589744,16.1054687 18.3910256,15.7096354 Z" id="Shape"></path>
                    <path d="M9.5,23.6263021 C10.9128205,23.6263021 12.0333333,22.4635417 12.0576923,21.0286458 L6.94230769,21.0286458 C6.96666667,22.4635417 8.08717949,23.6263021 9.5,23.6263021 Z" id="Shape"></path>
                </g>
            </g>
        </g>
    </g>
</svg>