<?xml version="1.0" encoding="UTF-8"?>
<svg width="138px" height="30px" viewBox="0 0 138 30" version="1.1" xmlns="http://www.w3.org/2000/svg" xmlns:xlink="http://www.w3.org/1999/xlink">
    <!-- Generator: Sketch 43.2 (39069) - http://www.bohemiancoding.com/sketch -->
    <title>Group 3</title>
    <desc>Created with Sketch.</desc>
    <defs>
        <polygon id="path-1" points="15.8926737 0.0845217391 0.171410526 0.0845217391 0.171410526 23.8030539 15.8926737 23.8030539 15.8926737 0.0845217391"></polygon>
        <polygon id="path-3" points="25.852878 0.134523529 25.852878 7 8.45528455e-05 7 8.45528455e-05 0.134523529 25.852878 0.134523529"></polygon>
        <polygon id="path-5" points="25.852878 0.123739535 25.852878 8.86232093 4.22764228e-05 8.86232093 4.22764228e-05 0.123739535 25.852878 0.123739535"></polygon>
    </defs>
    <g id="Page-1" stroke="none" stroke-width="1" fill="none" fill-rule="evenodd">
        <g id="List-View" transform="translate(-48.000000, -13.000000)">
            <g id="Group-3" transform="translate(48.000000, 12.000000)">
                <text id="STAYFIT" font-family="BebopSlabFace-Regular, Bebop Slab Face" font-size="24" font-weight="normal" fill="#FFFFFF">
                    <tspan x="41" y="24">STAYFIT</tspan>
                </text>
                <g id="Page-1" transform="translate(0.000000, 1.000000)">
                    <path d="M16.473984,23.2842267 C16.473984,23.4737901 16.2325556,23.7691397 15.5544967,24.028754 C14.8762186,24.2886049 13.9689999,24.4317832 13,24.4317832 C10.8795049,24.4317832 9.52601599,23.7521003 9.52601599,23.2842267 C9.52601599,23.1273222 9.40836893,23 9.26311754,23 C9.11786614,23 9,23.1273222 9,23.2842267 C9,24.398651 11.0609048,25 13,25 C14.9390952,25 17,24.398651 17,23.2842267 C17,23.1273222 16.8823529,23 16.7371015,23 C16.5918501,23 16.473984,23.1273222 16.473984,23.2842267" id="Fill-1" fill="#FFFFFF"></path>
                    <path d="M13,11 C14.6542414,11 16,9.65424139 16,8 C16,6.3459601 14.6542414,5 13,5 C11.3457586,5 10,6.3459601 10,8 C10,9.65424139 11.3457586,11 13,11" id="Fill-3" fill="#FFFFFF"></path>
                    <g id="Group-7" transform="translate(5.000000, 0.000000)">
                        <mask id="mask-2" fill="white">
                            <use xlink:href="#path-1"></use>
                        </mask>
                        <g id="Clip-6"></g>
                        <path d="M8.03204211,3.57940174 C10.4223579,3.57940174 12.3669895,5.50712348 12.3669895,7.87665391 C12.3669895,10.2461843 10.4223579,12.1739061 8.03204211,12.1739061 C5.64172632,12.1739061 3.69709474,10.2461843 3.69709474,7.87665391 C3.69709474,5.50712348 5.64172632,3.57940174 8.03204211,3.57940174 L8.03204211,3.57940174 Z M6.63288421,22.500793 C6.19330526,22.6370713 5.91435789,22.836167 5.91435789,23.0586365 C5.91435789,23.469767 6.86256842,23.8030539 8.03204211,23.8030539 C9.20151579,23.8030539 10.1497263,23.469767 10.1497263,23.0586365 C10.1497263,22.836167 9.87077895,22.6370713 9.4312,22.500793 L14.7333053,12.5789843 C15.4850947,11.1711235 15.8926737,10.0568974 15.8926737,8.20305391 C15.8926737,5.76924522 15.1019368,3.70524522 13.6061474,2.23435826 C12.1964632,0.847993043 10.2166737,0.0843756522 8.03204211,0.0843756522 C5.84741053,0.0843756522 3.86783158,0.847993043 2.45793684,2.23435826 C0.961936842,3.70524522 0.171410526,5.76924522 0.171410526,8.20305391 C0.171410526,10.0568974 0.578989474,11.1711235 1.33098947,12.579193 L6.63288421,22.500793 Z" id="Fill-5" fill="#FFFFFF" mask="url(#mask-2)"></path>
                    </g>
                    <path d="M2,22.80788 C2,22.9140034 2.10331941,23 2.23081996,23 C2.35854034,23 2.46185975,22.9140034 2.46185975,22.80788 C2.46185975,21.8289827 4.96592658,20.7977556 9,20.359173 L8.77137832,20 C7.52648934,20.1425348 6.38074302,20.3454501 5.38865685,20.6028909 C3.20334139,21.1699195 2,21.9530373 2,22.80788" id="Fill-8" fill="#FFFFFF"></path>
                    <path d="M23.5240453,22.8062969 C23.5240453,22.9132948 23.6305178,23 23.7619094,23 C23.893301,23 24,22.9132948 24,22.8062969 C24,21.9444103 22.7599353,21.1548395 20.5079288,20.5831386 C19.5422006,20.3379658 18.4353398,20.1420489 17.2346926,20 L17,20.3608412 C21.0319094,20.8153979 23.5240453,21.8363055 23.5240453,22.8062969" id="Fill-10" fill="#FFFFFF"></path>
                    <g id="Group-14" transform="translate(0.000000, 23.000000)">
                        <mask id="mask-4" fill="white">
                            <use xlink:href="#path-3"></use>
                        </mask>
                        <g id="Clip-13"></g>
                        <path d="M12.9265236,4.59990588 C5.78730407,4.59990588 8.45528455e-05,2.60078824 8.45528455e-05,0.134523529 L8.45528455e-05,2.53449412 C8.45528455e-05,5.00075882 5.78730407,7.00008235 12.9265236,7.00008235 C20.0655317,7.00008235 25.8529626,5.00075882 25.8529626,2.53449412 L25.8529626,0.134523529 C25.8529626,2.60078824 20.0655317,4.59990588 12.9265236,4.59990588" id="Fill-12" fill="#FFFFFF" mask="url(#mask-4)"></path>
                    </g>
                    <g id="Group-17" transform="translate(0.000000, 19.000000)">
                        <mask id="mask-6" fill="white">
                            <use xlink:href="#path-5"></use>
                        </mask>
                        <g id="Clip-16"></g>
                        <path d="M12.9264813,8.86232093 C20.0654894,8.86232093 25.8529203,6.82978605 25.8529203,4.32276279 C25.8529203,2.42732093 22.5445789,0.803553488 17.8455545,0.123739535 L17.5308065,0.712088372 C19.1356195,0.931227907 20.6053593,1.26611163 21.854839,1.7048093 C23.9610504,2.44448372 25.2185626,3.4231814 25.2185626,4.32276279 C25.2185626,5.22234419 23.9610504,6.20104186 21.854839,6.94071628 C19.4797496,7.77478605 16.3088065,8.23420465 12.9264813,8.23420465 C9.5441561,8.23420465 6.37321301,7.77478605 3.99812358,6.94071628 C1.8919122,6.20104186 0.6344,5.22234419 0.6344,4.32276279 C0.6344,3.4231814 1.8919122,2.44448372 3.99812358,1.7048093 C5.24760325,1.26611163 6.71734309,0.931227907 8.3221561,0.712088372 L8.00740813,0.123739535 C3.30838374,0.803553488 4.22764228e-05,2.42732093 4.22764228e-05,4.32276279 C4.22764228e-05,6.82978605 5.78747317,8.86232093 12.9264813,8.86232093" id="Fill-15" fill="#FFFFFF" mask="url(#mask-6)"></path>
                    </g>
                </g>
            </g>
        </g>
    </g>
</svg>